[Header]
FileType HTR
DataType HTRS
FileVersion 1
NumSegments 64
NumFrames 4
DataFrameRate 30
EulerRotationOrder ZYX
CalibrationUnits mm
RotationUnits Degrees
GlobalAxisofGravity Y
BoneLengthAxis Y
ScaleFactor 1.0
[SegmentNames&Hierarchy]
Hips	GLOBAL
Spine	Hips
Spine1	Spine
Spine2	Spine1
Neck	Spine2
Head	Neck
LeftEye	Head
RightEye	Head
LeftShoulder	Spine2
LeftArm	LeftShoulder
LeftForeArm	LeftArm
LeftHand	LeftForeArm
LeftHandThumb1	LeftHand
LeftHandThumb2	LeftHandThumb1
LeftHandThumb3	LeftHandThumb2
LeftHandThumb4	LeftHandThumb3
LeftHandIndex1	LeftHand
LeftHandIndex2	LeftHandIndex1
LeftHandIndex3	LeftHandIndex2
LeftHandIndex4	LeftHandIndex3
LeftHandMiddle1	LeftHand
LeftHandMiddle2	LeftHandMiddle1
LeftHandMiddle3	LeftHandMiddle2
LeftHandMiddle4	LeftHandMiddle3
LeftHandRing1	LeftHand
LeftHandRing2	LeftHandRing1
LeftHandRing3	LeftHandRing2
LeftHandRing4	LeftHandRing3
LeftHandPinky1	LeftHand
LeftHandPinky2	LeftHandPinky1
LeftHandPinky3	LeftHandPinky2
LeftHandPinky4	LeftHandPinky3
RightShoulder	Spine2
RightArm	RightShoulder
RightForeArm	RightArm
RightHand	RightForeArm
RightHandPinky1	RightHand
RightHandPinky2	RightHandPinky1
RightHandPinky3	RightHandPinky2
RightHandPinky4	RightHandPinky3
RightHandRing1	RightHand
RightHandRing2	RightHandRing1
RightHandRing3	RightHandRing2
RightHandRing4	RightHandRing3
RightHandMiddle1	RightHand
RightHandMiddle2	RightHandMiddle1
RightHandMiddle3	RightHandMiddle2
RightHandMiddle4	RightHandMiddle3
RightHandIndex1	RightHand
RightHandIndex2	RightHandIndex1
RightHandIndex3	RightHandIndex2
RightHandIndex4	RightHandIndex3
RightHandThumb1	RightHand
RightHandThumb2	RightHandThumb1
RightHandThumb3	RightHandThumb2
RightHandThumb4	RightHandThumb3
LeftUpLeg	Hips
LeftLeg	LeftUpLeg
LeftFoot	LeftLeg
LeftToeBase	LeftFoot
RightUpLeg	Hips
RightLeg	RightUpLeg
RightFoot	RightLeg
RightToeBase	RightFoot
[BasePosition]
Hips	0	0	0	0	0	0	1
Spine	0	0	0	0	0	0	1
Spine1	0	0	0	0	0	0	1
Spine2	0	0	0	0	0	0	1
Neck	0	0	0	0	0	0	1
Head	0	0	0	0	0	0	1
LeftEye	0	0	0	0	0	0	1
RightEye	0	0	0	0	0	0	1
LeftShoulder	0	0	0	0	0	0	1
LeftArm	0	0	0	0	0	0	1
LeftForeArm	0	0	0	0	0	0	1
LeftHand	0	0	0	0	0	0	1
LeftHandThumb1	0	0	0	0	0	0	1
LeftHandThumb2	0	0	0	0	0	0	1
LeftHandThumb3	0	0	0	0	0	0	1
LeftHandThumb4	0	0	0	0	0	0	1
LeftHandIndex1	0	0	0	0	0	0	1
LeftHandIndex2	0	0	0	0	0	0	1
LeftHandIndex3	0	0	0	0	0	0	1
LeftHandIndex4	0	0	0	0	0	0	1
LeftHandMiddle1	0	0	0	0	0	0	1
LeftHandMiddle2	0	0	0	0	0	0	1
LeftHandMiddle3	0	0	0	0	0	0	1
LeftHandMiddle4	0	0	0	0	0	0	1
LeftHandRing1	0	0	0	0	0	0	1
LeftHandRing2	0	0	0	0	0	0	1
LeftHandRing3	0	0	0	0	0	0	1
LeftHandRing4	0	0	0	0	0	0	1
LeftHandPinky1	0	0	0	0	0	0	1
LeftHandPinky2	0	0	0	0	0	0	1
LeftHandPinky3	0	0	0	0	0	0	1
LeftHandPinky4	0	0	0	0	0	0	1
RightShoulder	0	0	0	0	0	0	1
RightArm	0	0	0	0	0	0	1
RightForeArm	0	0	0	0	0	0	1
RightHand	0	0	0	0	0	0	1
RightHandPinky1	0	0	0	0	0	0	1
RightHandPinky2	0	0	0	0	0	0	1
RightHandPinky3	0	0	0	0	0	0	1
RightHandPinky4	0	0	0	0	0	0	1
RightHandRing1	0	0	0	0	0	0	1
RightHandRing2	0	0	0	0	0	0	1
RightHandRing3	0	0	0	0	0	0	1
RightHandRing4	0	0	0	0	0	0	1
RightHandMiddle1	0	0	0	0	0	0	1
RightHandMiddle2	0	0	0	0	0	0	1
RightHandMiddle3	0	0	0	0	0	0	1
RightHandMiddle4	0	0	0	0	0	0	1
RightHandIndex1	0	0	0	0	0	0	1
RightHandIndex2	0	0	0	0	0	0	1
RightHandIndex3	0	0	0	0	0	0	1
RightHandIndex4	0	0	0	0	0	0	1
RightHandThumb1	0	0	0	0	0	0	1
RightHandThumb2	0	0	0	0	0	0	1
RightHandThumb3	0	0	0	0	0	0	1
RightHandThumb4	0	0	0	0	0	0	1
LeftUpLeg	0	0	0	0	0	0	1
LeftLeg	0	0	0	0	0	0	1
LeftFoot	0	0	0	0	0	0	1
LeftToeBase	0	0	0	0	0	0	1
RightUpLeg	0	0	0	0	0	0	1
RightLeg	0	0	0	0	0	0	1
RightFoot	0	0	0	0	0	0	1
RightToeBase	0	0	0	0	0	0	1
[Hips]
146	-2.741260052	1033.283936	17.14947891	-3.006969929	-5.841946125	-3.389713287	1.0
147	-2.271553993	1033.584229	17.01664352	-3.127410173	-5.77230835	-3.373912811	1.0
148	-1.803403974	1033.875488	16.87866592	-3.245776892	-5.703504086	-3.358382225	1.0
149	-1.33544147	1034.157593	16.73270226	-3.361495018	-5.635679245	-3.342906952	1.0
[Spine]
146	0	101.8159943	1.315000057	3.386960745	1.375049829	2.837937593	1.0
147	0	101.8159943	1.315000057	3.362917423	1.37114048	2.846541882	1.0
148	0	101.8159943	1.315000057	3.339592457	1.367333412	2.854634285	1.0
149	0	101.8159943	1.315000057	3.317215443	1.363593936	2.862166405	1.0
[Spine1]
146	0	100.8349991	-10.00800037	1.157400489	0.3093189299	1.583936453	1.0
147	0	100.8349991	-10.00800037	1.134560943	0.3051909208	1.58760643	1.0
148	0	100.8349991	-10.00800037	1.112456322	0.3011383712	1.591060519	1.0
149	0	100.8349991	-10.00800037	1.09134078	0.2970748544	1.594360113	1.0
[Spine2]
146	0	91	-13.73399925	1.132217526	0.3259246647	1.592658877	1.0
147	0	91	-13.73399925	1.10933125	0.3218410015	1.596400261	1.0
148	0	91	-13.73399925	1.087181807	0.3178284168	1.599898577	1.0
149	0	91	-13.73399925	1.066022754	0.3137943745	1.60320437	1.0
[Neck]
146	0	166.7169952	-25.16200066	6.402165413	-0.02266000584	0.3042294681	1.0
147	0	166.7169952	-25.16200066	6.347326756	-0.04793073237	0.3289152384	1.0
148	0	166.7169952	-25.16200066	6.290990353	-0.07271074504	0.3533943295	1.0
149	0	166.7169952	-25.16200066	6.232696533	-0.0972449109	0.3784500062	1.0
[Head]
146	0	96.17900085	16.84999847	-7.285151482	1.824152946	-0.4991064072	1.0
147	0	96.17900085	16.84999847	-7.158798695	1.714172244	-0.4186935127	1.0
148	0	96.17900085	16.84999847	-7.03780365	1.606537223	-0.3400976658	1.0
149	0	96.17900085	16.84999847	-6.924451828	1.500646114	-0.2623563111	1.0
[LeftEye]
146	30.6760006	64.09500122	92.83599854	0	0	0	1.0
147	30.6760006	64.09500122	92.83599854	0	0	0	1.0
148	30.6760006	64.09500122	92.83599854	0	0	0	1.0
149	30.6760006	64.09500122	92.83599854	0	0	0	1.0
[RightEye]
146	-30.6760006	64.09500122	92.83499908	0	0	0	1.0
147	-30.6760006	64.09500122	92.83499908	0	0	0	1.0
148	-30.6760006	64.09500122	92.83499908	0	0	0	1.0
149	-30.6760006	64.09500122	92.83499908	0	0	0	1.0
[LeftShoulder]
146	45.70400238	109.4599991	-26.28000069	4.913975239	-16.70377731	-13.43964863	1.0
147	45.70400238	109.4599991	-26.28000069	4.905408859	-16.68029785	-13.42374229	1.0
148	45.70400238	109.4599991	-26.28000069	4.89733696	-16.65954971	-13.40747643	1.0
149	45.70400238	109.4599991	-26.28000069	4.890147686	-16.64329529	-13.39077473	1.0
[LeftArm]
146	105.923996	-5.24600029	-22.32099915	22.02163315	-4.11850214	-69.4848175	1.0
147	105.923996	-5.24600029	-22.32099915	21.85492516	-4.043642044	-69.70674896	1.0
148	105.923996	-5.24600029	-22.32099915	21.67985535	-3.966109276	-69.9299469	1.0
149	105.923996	-5.24600029	-22.32099915	21.49912834	-3.888140678	-70.15348053	1.0
[LeftForeArm]
146	278.414978	-0.0009999999311	0	-2.821900125e-06	-2.420180321	-0.0001871681161	1.0
147	278.414978	-0.0009999999311	0	-4.175396953e-06	-2.332193136	-0.0001890885469	1.0
148	278.414978	-0.0009999999311	0	-5.2213054e-06	-2.241068363	-0.0001912329753	1.0
149	278.414978	-0.0009999999311	0	-5.896466064e-06	-2.146316051	-0.0001935275068	1.0
[LeftHand]
146	283.2879944	0	0	-33.29409409	-5.370896816	-4.410912514	1.0
147	283.2879944	0	0	-33.40972137	-5.383349895	-4.434497356	1.0
148	283.2879944	0	0	-33.51779175	-5.389441967	-4.460068226	1.0
149	283.2879944	0	0	-33.61635971	-5.387442589	-4.491399288	1.0
[LeftHandThumb1]
146	24.6609993	-15.75	26.8239994	-1.7876302	1.538615108	4.173899651	1.0
147	24.6609993	-15.75	26.8239994	-1.810333967	1.547021389	4.186784744	1.0
148	24.6609993	-15.75	26.8239994	-1.828329086	1.558798432	4.198290348	1.0
149	24.6609993	-15.75	26.8239994	-1.843261957	1.574674845	4.210222721	1.0
[LeftHandThumb2]
146	32.29800034	-18.64699936	18.64699936	19.30983543	15.73706245	16.00470734	1.0
147	32.29800034	-18.64699936	18.64699936	19.29774094	15.71024132	15.9635849	1.0
148	32.29800034	-18.64699936	18.64699936	19.28918839	15.69065762	15.93572044	1.0
149	32.29800034	-18.64699936	18.64699936	19.2849865	15.68044758	15.92321873	1.0
[LeftHandThumb3]
146	26.52600098	-15.31499958	15.31499958	-12.30706596	4.020679951	11.79046822	1.0
147	26.52600098	-15.31499958	15.31499958	-12.29636192	4.015593052	11.82962418	1.0
148	26.52600098	-15.31499958	15.31499958	-12.29167747	4.016902924	11.86515045	1.0
149	26.52600098	-15.31499958	15.31499958	-12.29411316	4.02554512	11.89616489	1.0
[LeftHandThumb4]
146	19.54599953	-11.28499985	11.28499985	0	0	0	1.0
147	19.54599953	-11.28499985	11.28499985	0	0	0	1.0
148	19.54599953	-11.28499985	11.28499985	0	0	0	1.0
149	19.54599953	-11.28499985	11.28499985	0	0	0	1.0
[LeftHandIndex1]
146	91.09299469	-5.170999527	22.60099792	0.3126106858	-0.9342392683	-7.487430573	1.0
147	91.09299469	-5.170999527	22.60099792	0.3078987896	-0.9355102777	-7.489651203	1.0
148	91.09299469	-5.170999527	22.60099792	0.3022811115	-0.936598897	-7.494652748	1.0
149	91.09299469	-5.170999527	22.60099792	0.2949219942	-0.9375610352	-7.503531456	1.0
[LeftHandIndex2]
146	36.76399994	0	0	-0.267993778	1.749281168	-17.41872406	1.0
147	36.76399994	0	0	-0.267816186	1.748713493	-17.41289139	1.0
148	36.76399994	0	0	-0.2676466405	1.748172283	-17.40732765	1.0
149	36.76399994	0	0	-0.2674836218	1.747652292	-17.40198135	1.0
[LeftHandIndex3]
146	28.83100128	0	0	-0.05803383887	0.8216058016	-8.080634117	1.0
147	28.83100128	0	0	-0.05795027316	0.8210182786	-8.074821472	1.0
148	28.83100128	0	0	-0.05787057802	0.820458293	-8.069278717	1.0
149	28.83100128	0	0	-0.05779406801	0.8199213147	-8.063961029	1.0
[LeftHandIndex4]
146	23.92700005	0	0	0	0	0	1.0
147	23.92700005	0	0	0	0	0	1.0
148	23.92700005	0	0	0	0	0	1.0
149	23.92700005	0	0	0	0	0	1.0
[LeftHandMiddle1]
146	95.33399963	0	0	-0.820830822	2.630968809	-16.1067524	1.0
147	95.33399963	0	0	-0.8241144419	2.626143932	-16.15524292	1.0
148	95.33399963	0	0	-0.827419281	2.621140003	-16.2040596	1.0
149	95.33399963	0	0	-0.8308528662	2.615505219	-16.25481606	1.0
[LeftHandMiddle2]
146	36.98199844	0	0	-0.2660075128	1.742951751	-17.35363579	1.0
147	36.98199844	0	0	-0.2664331794	1.744315028	-17.36763763	1.0
148	36.98199844	0	0	-0.2668474615	1.74564147	-17.38126183	1.0
149	36.98199844	0	0	-0.2672518492	1.746935487	-17.39455605	1.0
[LeftHandMiddle3]
146	29.50900078	0	0	-0.297501862	1.840654135	-18.36078644	1.0
147	29.50900078	0	0	-0.2979537845	1.84201622	-18.37486458	1.0
148	29.50900078	0	0	-0.2983950675	1.843346357	-18.38861275	1.0
149	29.50900078	0	0	-0.2988277078	1.844650865	-18.40209389	1.0
[LeftHandMiddle4]
146	28.3390007	0	0	0	0	0	1.0
147	28.3390007	0	0	0	0	0	1.0
148	28.3390007	0	0	0	0	0	1.0
149	28.3390007	0	0	0	0	0	1.0
[LeftHandRing1]
146	91.04499817	-0.4390000105	-18.65100098	-1.325336576	3.538305044	-22.99528313	1.0
147	91.04499817	-0.4390000105	-18.65100098	-1.32712996	3.537198782	-23.01825333	1.0
148	91.04499817	-0.4390000105	-18.65100098	-1.328722119	3.535887957	-23.03866386	1.0
149	91.04499817	-0.4390000105	-18.65100098	-1.330296278	3.534314871	-23.05890656	1.0
[LeftHandRing2]
146	31.54000092	0	0	-0.4071019888	2.142397404	-21.51153564	1.0
147	31.54000092	0	0	-0.4101653397	2.150186539	-21.59367752	1.0
148	31.54000092	0	0	-0.4131075144	2.157674313	-21.67263412	1.0
149	31.54000092	0	0	-0.4159603715	2.164952278	-21.7493515	1.0
[LeftHandRing3]
146	29.37700081	0	0	-0.3011246324	1.85126555	-18.47076416	1.0
147	29.37700081	0	0	-0.3037970662	1.85928607	-18.55371475	1.0
148	29.37700081	0	0	-0.3063642383	1.866998672	-18.63347435	1.0
149	29.37700081	0	0	-0.3088545203	1.874501109	-18.71103668	1.0
[LeftHandRing4]
146	26.47500038	0	0	0	0	0	1.0
147	26.47500038	0	0	0	0	0	1.0
148	26.47500038	0	0	0	0	0	1.0
149	26.47500038	0	0	0	0	0	1.0
[LeftHandPinky1]
146	80.77799988	-4.887000084	-38.06099701	-1.974536657	5.1172328	-27.59699631	1.0
147	80.77799988	-4.887000084	-38.06099701	-1.988707066	5.103302479	-27.58400345	1.0
148	80.77799988	-4.887000084	-38.06099701	-2.002635002	5.089211464	-27.57050323	1.0
149	80.77799988	-4.887000084	-38.06099701	-2.016810179	5.074071407	-27.55703163	1.0
[LeftHandPinky2]
146	36	0	0	-0.2856986225	1.804734945	-17.98983002	1.0
147	36	0	0	-0.2854242325	1.803892493	-17.98113251	1.0
148	36	0	0	-0.2851587236	1.803076863	-17.97271347	1.0
149	36	0	0	-0.2849051356	1.802297115	-17.96466637	1.0
[LeftHandPinky3]
146	21.14200211	0	0	-0.2580792904	1.717379332	-17.09102249	1.0
147	21.14200211	0	0	-0.257802844	1.71648109	-17.0818119	1.0
148	21.14200211	0	0	-0.2575362623	1.715615153	-17.07292938	1.0
149	21.14200211	0	0	-0.2572841942	1.714796305	-17.06452751	1.0
[LeftHandPinky4]
146	19.75699997	0	0	0	0	0	1.0
147	19.75699997	0	0	0	0	0	1.0
148	19.75699997	0	0	0	0	0	1.0
149	19.75699997	0	0	0	0	0	1.0
[RightShoulder]
146	-45.70000076	109.4620056	-26.28000069	5.290682316	14.90355301	15.53179932	1.0
147	-45.70000076	109.4620056	-26.28000069	5.268887997	14.82151031	15.53549004	1.0
148	-45.70000076	109.4620056	-26.28000069	5.247562885	14.74101067	15.53968906	1.0
149	-45.70000076	109.4620056	-26.28000069	5.227016926	14.66311169	15.54460621	1.0
[RightArm]
146	-105.9280014	-5.248000145	-22.32099915	29.31929588	2.402429581	61.62519836	1.0
147	-105.9280014	-5.248000145	-22.32099915	29.36626434	2.290521383	61.78087997	1.0
148	-105.9280014	-5.248000145	-22.32099915	29.41773605	2.180043697	61.938694	1.0
149	-105.9280014	-5.248000145	-22.32099915	29.46972466	2.072107553	62.0968132	1.0
[RightForeArm]
146	-278.414978	0	0	2.480048579e-06	6.729674339	1.58821349e-05	1.0
147	-278.414978	0	0	2.880655757e-06	6.700880051	1.894038724e-05	1.0
148	-278.414978	0	0	3.404584731e-06	6.67217207	2.111854155e-05	1.0
149	-278.414978	0	0	4.131018159e-06	6.643179417	2.218673399e-05	1.0
[RightHand]
146	-283.2879944	0	0.0009999999311	-20.75024033	2.31583643	6.523059368	1.0
147	-283.2879944	0	0.0009999999311	-20.6941433	2.254529953	6.62932682	1.0
148	-283.2879944	0	0.0009999999311	-20.63357735	2.191335917	6.734755039	1.0
149	-283.2879944	0	0.0009999999311	-20.56383514	2.122950554	6.834237099	1.0
[RightHandPinky1]
146	-80.76699829	-4.885000229	-38.06000137	-1.62003386	-4.678976059	27.90216446	1.0
147	-80.76699829	-4.885000229	-38.06000137	-1.604174614	-4.690471649	27.71448517	1.0
148	-80.76699829	-4.885000229	-38.06000137	-1.591954231	-4.702280045	27.5753727	1.0
149	-80.76699829	-4.885000229	-38.06000137	-1.584692836	-4.714528561	27.50233078	1.0
[RightHandPinky2]
146	-36	0	0.0009999999311	-0.2135381699	-1.391327262	17.46971512	1.0
147	-36	0	0.0009999999311	-0.2133365273	-1.39068687	17.46141243	1.0
148	-36	0	0.0009999999311	-0.2131649107	-1.390141964	17.45434952	1.0
149	-36	0	0.0009999999311	-0.2130397707	-1.389744878	17.44920349	1.0
[RightHandPinky3]
146	-21.14200211	0	0	-0.1924846023	-1.322519064	16.56110001	1.0
147	-21.14200211	0	0	-0.1923254281	-1.321981549	16.55419159	1.0
148	-21.14200211	0	0	-0.1921918541	-1.321531057	16.54839516	1.0
149	-21.14200211	0	0	-0.1920984089	-1.321216345	16.54434013	1.0
[RightHandPinky4]
146	-19.75699997	0	0	0	0	0	1.0
147	-19.75699997	0	0	0	0	0	1.0
148	-19.75699997	0	0	0	0	0	1.0
149	-19.75699997	0	0	0	0	0	1.0
[RightHandRing1]
146	-91.03599548	-0.4390000105	-18.65100098	-1.100250006	-3.057664394	21.30452156	1.0
147	-91.03599548	-0.4390000105	-18.65100098	-1.092535496	-3.058247328	21.18924904	1.0
148	-91.03599548	-0.4390000105	-18.65100098	-1.086790919	-3.066753149	21.10336304	1.0
149	-91.03599548	-0.4390000105	-18.65100098	-1.083749294	-3.085936308	21.05779839	1.0
[RightHandRing2]
146	-31.54000092	0	0	-0.3047298491	-1.653582215	20.88100433	1.0
147	-31.54000092	0	0	-0.3056188226	-1.655914307	20.91183853	1.0
148	-31.54000092	0	0	-0.3064771891	-1.658166885	20.94161415	1.0
149	-31.54000092	0	0	-0.307297945	-1.660321712	20.9700985	1.0
[RightHandRing3]
146	-29.37700081	0	0	-0.2228836715	-1.420686364	17.83057976	1.0
147	-29.37700081	0	0	-0.2236483395	-1.423069239	17.86149406	1.0
148	-29.37700081	0	0	-0.2243884653	-1.425375462	17.89141846	1.0
149	-29.37700081	0	0	-0.2250986248	-1.42758894	17.92013741	1.0
[RightHandRing4]
146	-26.47500038	0	0	0	0	0	1.0
147	-26.47500038	0	0	0	0	0	1.0
148	-26.47500038	0	0	0	0	0	1.0
149	-26.47500038	0	0	0	0	0	1.0
[RightHandMiddle1]
146	-95.32500458	0	0	-0.7602354884	-2.267383337	15.98075199	1.0
147	-95.32500458	0	0	-0.7502841353	-2.255245209	15.81782055	1.0
148	-95.32500458	0	0	-0.7421560884	-2.248173714	15.68481064	1.0
149	-95.32500458	0	0	-0.7365456223	-2.248152971	15.59309387	1.0
[RightHandMiddle2]
146	-36.98199844	0	0	-0.2130895406	-1.389920115	17.4316864	1.0
147	-36.98199844	0	0	-0.2132331431	-1.390377641	17.43761063	1.0
148	-36.98199844	0	0	-0.2133768797	-1.390835166	17.44354057	1.0
149	-36.98199844	0	0	-0.2135223001	-1.391297698	17.44953537	1.0
[RightHandMiddle3]
146	-29.50900078	0	0	-0.2382550985	-1.469644427	18.44088364	1.0
147	-29.50900078	0	0	-0.2384070009	-1.470100999	18.44681931	1.0
148	-29.50900078	0	0	-0.2385587394	-1.470557332	18.45274925	1.0
149	-29.50900078	0	0	-0.2387118638	-1.471018434	18.45873833	1.0
[RightHandMiddle4]
146	-28.3390007	0	0.0009999999311	0	0	0	1.0
147	-28.3390007	0	0.0009999999311	0	0	0	1.0
148	-28.3390007	0	0.0009999999311	0	0	0	1.0
149	-28.3390007	0	0.0009999999311	0	0	0	1.0
[RightHandIndex1]
146	-91.08300018	-5.167999744	22.60099792	0.164194271	0.9866550565	7.634908199	1.0
147	-91.08300018	-5.167999744	22.60099792	0.1627393067	1.023122191	7.600905418	1.0
148	-91.08300018	-5.167999744	22.60099792	0.1605584472	1.05041337	7.601403236	1.0
149	-91.08300018	-5.167999744	22.60099792	0.1574496776	1.064932585	7.648341179	1.0
[RightHandIndex2]
146	-36.76399994	0	0	-0.2090586424	-1.3770051	17.26460266	1.0
147	-36.76399994	0	0	-0.2087191045	-1.375910282	17.25043869	1.0
148	-36.76399994	0	0	-0.20847404	-1.375119925	17.24021912	1.0
149	-36.76399994	0	0	-0.2083616555	-1.374757051	17.23553467	1.0
[RightHandIndex3]
146	-28.83100128	0	0	-0.04416102543	-0.6386529803	7.910527229	1.0
147	-28.83100128	0	0	-0.04400224239	-0.6375181079	7.896370888	1.0
148	-28.83100128	0	0	-0.04388739541	-0.636698842	7.886154175	1.0
149	-28.83100128	0	0	-0.04383432865	-0.6363232136	7.881472588	1.0
[RightHandIndex4]
146	-23.92700005	0	0	0	0	0	1.0
147	-23.92700005	0	0	0	0	0	1.0
148	-23.92700005	0	0	0	0	0	1.0
149	-23.92700005	0	0	0	0	0	1.0
[RightHandThumb1]
146	-24.64799881	-15.72700024	26.82600021	-1.689733028	-0.432448566	-2.85584116	1.0
147	-24.64799881	-15.72700024	26.82600021	-1.67567277	-0.4825015068	-2.843991756	1.0
148	-24.64799881	-15.72700024	26.82600021	-1.661897302	-0.5446285009	-2.769701004	1.0
149	-24.64799881	-15.72700024	26.82600021	-1.648422122	-0.623301506	-2.611282587	1.0
[RightHandThumb2]
146	-32.29800034	-18.64699936	18.64699936	22.43171883	-24.04324722	-24.37016487	1.0
147	-32.29800034	-18.64699936	18.64699936	22.46319962	-24.06884766	-24.38598061	1.0
148	-32.29800034	-18.64699936	18.64699936	22.51386833	-24.10995865	-24.41147995	1.0
149	-32.29800034	-18.64699936	18.64699936	22.59126854	-24.17270851	-24.45044708	1.0
[RightHandThumb3]
146	-26.52600098	-15.31399918	15.31399918	-14.61710072	-6.565429688	-11.32626247	1.0
147	-26.52600098	-15.31399918	15.31399918	-14.60462856	-6.58108139	-11.33017445	1.0
148	-26.52600098	-15.31399918	15.31399918	-14.59871769	-6.588506699	-11.33210754	1.0
149	-26.52600098	-15.31399918	15.31399918	-14.60172558	-6.584753513	-11.33134556	1.0
[RightHandThumb4]
146	-19.54599953	-11.28499985	11.28499985	0	0	0	1.0
147	-19.54599953	-11.28499985	11.28499985	0	0	0	1.0
148	-19.54599953	-11.28499985	11.28499985	0	0	0	1.0
149	-19.54599953	-11.28499985	11.28499985	0	0	0	1.0
[LeftUpLeg]
146	82.07800293	-67.51699829	-15.99599934	-8.842024803	16.3515892	7.945618153	1.0
147	82.07800293	-67.51699829	-15.99599934	-8.620704651	16.33499527	7.915933132	1.0
148	82.07800293	-67.51699829	-15.99599934	-8.404817581	16.31859016	7.886353493	1.0
149	82.07800293	-67.51699829	-15.99599934	-8.194763184	16.30243874	7.856415749	1.0
[LeftLeg]
146	0	-443.7049866	2.845999956	12.97151375	1.382546544	4.601159573	1.0
147	0	-443.7049866	2.845999956	12.73653793	1.332295179	4.590554714	1.0
148	0	-443.7049866	2.845999956	12.50780296	1.2824018	4.579721451	1.0
149	0	-443.7049866	2.845999956	12.28458405	1.233020067	4.56843996	1.0
[LeftFoot]
146	0	-444.2789917	-29.8219986	0.9647338986	0.6293699145	-7.375384808	1.0
147	0	-444.2789917	-29.8219986	1.037934542	0.6367732882	-7.343118191	1.0
148	0	-444.2789917	-29.8219986	1.108584762	0.643987	-7.310581207	1.0
149	0	-444.2789917	-29.8219986	1.176944494	0.6510513425	-7.277271271	1.0
[LeftToeBase]
146	0	-87.28699493	107.1060028	-4.835765362	3.540958915e-06	-2.368003607e-06	1.0
147	0	-87.28699493	107.1060028	-4.845227718	4.390663435e-06	-2.356642426e-06	1.0
148	0	-87.28699493	107.1060028	-4.85511446	4.897593499e-06	-2.237134595e-06	1.0
149	0	-87.28699493	107.1060028	-4.865651131	4.96504299e-06	-1.995533921e-06	1.0
[RightUpLeg]
146	-82.07800293	-67.51699829	-15.99599934	-0.5738281012	-10.3388052	3.623195171	1.0
147	-82.07800293	-67.51699829	-15.99599934	-0.3082287908	-10.35827065	3.571216822	1.0
148	-82.07800293	-67.51699829	-15.99599934	-0.05039130151	-10.37804985	3.519474506	1.0
149	-82.07800293	-67.51699829	-15.99599934	0.1983885765	-10.39823437	3.467627764	1.0
[RightLeg]
146	0	-443.7049866	2.861999989	8.669750214	-8.902638435	-4.452355862	1.0
147	0	-443.7049866	2.861999989	8.372857094	-8.964116096	-4.442401886	1.0
148	0	-443.7049866	2.861999989	8.086625099	-9.023880005	-4.432889938	1.0
149	0	-443.7049866	2.861999989	7.812015533	-9.081604958	-4.423631668	1.0
[RightFoot]
146	0	-444.2770081	-29.83799934	-4.324810505	-1.439377546	3.08432889	1.0
147	0	-444.2770081	-29.83799934	-4.16892004	-1.444124222	3.103574276	1.0
148	0	-444.2770081	-29.83799934	-4.017912865	-1.448636651	3.122923374	1.0
149	0	-444.2770081	-29.83799934	-3.872032642	-1.452905536	3.142304182	1.0
[RightToeBase]
146	0	-87.28699493	107.1060028	-7.246095181	9.627156032e-06	1.501824443e-07	1.0
147	0	-87.28699493	107.1060028	-7.249932766	1.003868056e-05	-2.431138171e-07	1.0
148	0	-87.28699493	107.1060028	-7.253863811	1.040549068e-05	-5.88235423e-07	1.0
149	0	-87.28699493	107.1060028	-7.258002758	1.07478254e-05	-8.516650496e-07	1.0
[EndOfFile]
